Coordinates
version=1
nRows=14
nColumns=36
inDegrees=yes

Units are S.I. units (second, meters, Newtons, ...)
If the header above contains a line with 'inDegrees', this indicates whether rotational values are in degrees (yes) or radians (no).

endheader
time	pelvis_tilt	pelvis_list	pelvis_rotation	pelvis_tx	pelvis_ty	pelvis_tz	hip_flexion_r	hip_adduction_r	hip_rotation_r	knee_angle_r	knee_angle_r_beta	ankle_angle_r	subtalar_angle_r	mtp_angle_r	hip_flexion_l	hip_adduction_l	hip_rotation_l	knee_angle_l	knee_angle_l_beta	ankle_angle_l	subtalar_angle_l	mtp_angle_l	lumbar_extension	lumbar_bending	lumbar_rotation	arm_flex_r	arm_add_r	arm_rot_r	elbow_flex_r	pro_sup_r	arm_flex_l	arm_add_l	arm_rot_l	elbow_flex_l	pro_sup_l
      6.60000000	    -32.86756345	     -0.45152756	     -0.29241041	     -0.31424899	      0.58479838	     -0.56235507	    101.90021557	     -8.38348869	      0.52363231	     99.82081851	      1.74220194	     30.76488891	     -1.07535489	     -7.49999987	    101.35301449	    -14.10327477	      3.23054913	     98.57906309	      1.72052922	     32.73041209	     -0.63314701	     -7.49999987	    -31.59134909	      0.40263047	      0.54489722	    101.18009102	    -23.31909561	     11.41861452	     82.96982623	     97.92601202	    102.87153722	    -19.41702017	     12.65697538	     78.68447238	     89.77570568
      6.61000000	    -32.91203092	     -0.43899579	     -0.33794115	     -0.31487015	      0.58158627	     -0.56201416	    102.41969752	     -8.44859768	      0.47230936	    100.36120616	      1.75163349	     30.81703919	     -1.06562581	     -7.49999987	    101.87289580	    -14.19407339	      3.34240057	     99.13052098	      1.73015398	     32.82556261	     -0.65345204	     -7.49999987	    -31.99856293	      0.28999649	      0.53042252	    101.84847363	    -23.25335362	     11.35426898	     82.90379080	     97.92647790	    103.58643629	    -19.38202525	     12.67215279	     78.67043513	     89.77357834
      6.62000000	    -32.94065367	     -0.40941120	     -0.38116275	     -0.31542725	      0.57868173	     -0.56159566	    102.90337194	     -8.56384370	      0.36278019	    100.84755881	      1.76012194	     30.86450236	     -1.04920179	     -7.49999987	    102.30756966	    -14.27453185	      3.45338079	     99.60800426	      1.73848764	     32.90532737	     -0.67155854	     -7.49999987	    -32.38186586	      0.14407744	      0.51715956	    102.45955929	    -23.18196473	     11.31318645	     82.84529312	     97.92884553	    104.20586679	    -19.37039616	     12.70334439	     78.64037055	     89.77112801
      6.63000000	    -32.94815710	     -0.40370937	     -0.38493712	     -0.31596397	      0.57593263	     -0.56129466	    103.33360669	     -8.69348171	      0.30989185	    101.32867719	      1.76851904	     30.90534256	     -1.00289056	     -7.49999987	    102.73465600	    -14.34191862	      3.53734144	    100.08498172	      1.74681246	     32.98205441	     -0.67047943	     -7.49999987	    -32.78279886	      0.05131700	      0.46900716	    103.08831165	    -23.15352274	     11.31656386	     82.74882185	     97.93364555	    104.88832840	    -19.36767644	     12.76178710	     78.58331924	     89.76684474
      6.64000000	    -32.67659395	     -0.38455153	     -0.38168102	     -0.31650779	      0.57384099	     -0.56103544	    103.42960135	     -8.82840394	      0.30540096	    101.76239716	      1.77608889	     31.02097394	     -0.55394612	     -7.49999987	    102.82346805	    -14.42170200	      3.61630080	    100.50977105	      1.75422644	     33.13111877	     -0.36344698	     -7.49999987	    -33.51849280	     -0.05206725	      0.36052523	    104.13010734	    -23.23977581	     11.91597634	     82.07319232	     97.98966098	    105.97264627	    -19.56183075	     13.47433014	     77.97854762	     89.72512388
      6.65000000	    -32.72788816	     -0.35708031	     -0.42070108	     -0.31691214	      0.57132038	     -0.56063648	    103.84216232	     -8.92939553	      0.18297022	    102.16812760	      1.78317022	     31.10921219	     -0.55736360	     -7.49999987	    103.22838971	    -14.58122912	      3.63261183	    100.90219827	      1.76107558	     33.19370068	     -0.37678281	     -7.49999987	    -33.74654377	     -0.19571639	      0.30465051	    104.52316237	    -23.16623075	     11.86468794	     82.09636984	     97.99762262	    106.34552054	    -19.48687336	     13.42280620	     78.03256753	     89.72758734
      6.66000000	    -32.76409944	     -0.31101436	     -0.45230524	     -0.31731495	      0.56906849	     -0.56029652	    104.21018466	     -9.00845667	      0.12531379	    102.53547369	      1.78958162	     31.19678397	     -0.55430085	     -7.49999987	    103.58569280	    -14.74212770	      3.60420933	    101.27546802	      1.76759037	     33.24778790	     -0.36927893	     -7.49999987	    -33.99617191	     -0.32314286	      0.28514681	    104.95561520	    -23.10424144	     11.78886764	     82.05586409	     97.99965033	    106.74976272	    -19.45067076	     13.36716610	     78.05693331	     89.72732908
      6.67000000	    -32.77871242	     -0.25072198	     -0.47453649	     -0.31768309	      0.56710844	     -0.56000150	    104.52930307	     -9.10690548	      0.07885720	    102.85587183	      1.79517362	     31.28039300	     -0.54003854	     -7.49999987	    103.86087773	    -14.88819809	      3.56491732	    101.57573623	      1.77283104	     33.29475843	     -0.33545987	     -7.49999987	    -34.23664146	     -0.45381372	      0.26365222	    105.39175035	    -23.04562892	     11.74805114	     81.96945633	     97.99919916	    107.10631747	    -19.41800401	     13.35096622	     78.04856826	     89.72392848
      6.68000000	    -32.62510647	     -0.17006780	     -0.49457274	     -0.31808984	      0.56558974	     -0.55978008	    104.64708639	     -9.15713890	      0.14290972	    103.15450850	      1.80038581	     31.58397523	     -0.26223200	     -7.49999987	    103.91493859	    -14.98811850	      3.56470700	    101.85003608	      1.77761847	     33.59881558	      0.08965762	     -7.49999987	    -34.70009837	     -0.56282800	      0.14988162	    106.23912377	    -23.08029518	     12.46909219	     81.54907434	     95.41853928	    107.77405370	    -19.71769223	     13.94065854	     78.03698690	     87.58521193
      6.69000000	    -32.66864157	     -0.23313575	     -0.53251743	     -0.31846487	      0.56399044	     -0.55946794	    104.89206966	     -9.19729096	     -0.01370875	    103.39060644	      1.80450650	     31.69111635	     -0.12985253	     -7.49999987	    104.21889413	    -15.08488525	      3.71235831	    102.09184400	      1.78183882	     33.76952195	      0.38195250	     -7.49999987	    -34.82234953	     -0.54012641	      0.17524468	    106.63540841	    -22.95944375	     12.61936469	     81.51347926	     93.32496438	    107.93537311	    -19.77592449	     13.88806719	     78.30283340	     85.91337248
      6.70000000	    -32.63831089	     -0.13754206	     -0.54236988	     -0.31876381	      0.56276908	     -0.55927228	    105.10908603	     -9.28512631	     -0.01388593	    103.62896232	      1.80866659	     31.65073754	     -0.15959737	     -7.49999987	    104.32988271	    -15.18385926	      3.61597141	    102.27763961	      1.78508156	     33.80846216	      0.40589986	     -7.49999987	    -35.00490021	     -0.65072220	      0.05721619	    107.04728180	    -22.71851857	     12.36632618	     80.71518938	     99.13424173	    108.17332609	    -19.81557724	     13.69367534	     77.79075475	     89.26507912
      6.71000000	    -32.66702249	     -0.00533179	     -0.48624297	     -0.31905848	      0.56152135	     -0.55932238	    105.43173227	     -9.41959675	      0.04149083	    103.88961516	      1.81321584	     31.10077601	     -1.07772592	     -7.49999987	    104.51292051	    -15.23171033	      3.37008814	    102.43353580	      1.78780246	     33.26909810	     -0.56972867	     -7.49999987	    -35.05787612	     -0.74737844	     -0.08761115	    107.33977169	    -22.70031201	     12.62889060	     80.80689495	     95.21385335	    108.26218025	    -19.88320945	     13.75673716	     77.98642883	     86.51753927
      6.72000000	    -32.63492290	      0.00171751	     -0.47988921	     -0.31922997	      0.56062388	     -0.55935996	    105.51587232	     -9.49679537	      0.07409882	    104.05104623	      1.81603335	     31.65479592	     -0.19114996	     -7.49999987	    104.61976985	    -15.36896562	      3.36110018	    102.62686970	      1.79117678	     33.85714591	      0.68787424	     -7.49999987	    -35.25417282	     -0.68400263	     -0.14854278	    107.82330816	    -22.68412259	     13.24258823	     80.91181603	     93.10795327	    108.38734078	    -20.12537560	     13.81744065	     78.45164634	     84.99398395
      6.73000000	    -32.71980069	     -0.00170591	     -0.48820814	     -0.31957221	      0.55944589	     -0.55914924	    105.78128333	     -9.47313368	      0.06075797	    104.21880839	      1.81896135	     31.62040011	     -0.20426578	     -7.49999987	    104.89624445	    -15.47228660	      3.38769632	    102.78847104	      1.79399725	     33.85427269	      0.84364834	     -7.49999987	    -35.15261896	     -0.68383091	     -0.17031700	    108.00647626	    -22.47478367	     12.97596863	     80.20001288	     98.94924624	    108.39579464	    -20.09338347	     13.52682730	     77.78100371	     89.28403651
